<svg xmlns="http://www.w3.org/2000/svg" width="512" height="512" viewBox="0 0 512 512" role="img" aria-label="LARA"><rect width="512" height="512" rx="104" fill="#125D66"/><g transform="translate(113 86) scale(3.35)"><g fill="#FFFFFF"><path d="M8 0H28V74H82Q86 74 86 78V96Q86 100 82 100H6Q0 100 0 94V8Q0 0 8 0Z"/><rect x="36" y="37" width="39" height="10" rx="1.4"/><rect x="36" y="55" width="39" height="10" rx="1.4"/></g><path fill="#69D5C4" d="M46 0H51Q53 0 55 2L74 21Q79 27 73 28H49Q46 28 46 25Z"/></g></svg>